<mxfile host="app.diagrams.net" modified="2023-11-03T17:57:42.944Z" agent="Mozilla/5.0 (Windows NT 10.0; Win64; x64) AppleWebKit/537.36 (KHTML, like Gecko) Chrome/118.0.0.0 Safari/537.36" etag="hjsisf53R6WPzopeDkMX" version="22.0.8" type="device" pages="3">
  <diagram id="C5RBs43oDa-KdzZeNtuy" name="hw02-1">
    <mxGraphModel dx="818" dy="486" grid="1" gridSize="10" guides="1" tooltips="1" connect="1" arrows="1" fold="1" page="1" pageScale="1" pageWidth="827" pageHeight="1169" math="0" shadow="0">
      <root>
        <mxCell id="WIyWlLk6GJQsqaUBKTNV-0" />
        <mxCell id="WIyWlLk6GJQsqaUBKTNV-1" parent="WIyWlLk6GJQsqaUBKTNV-0" />
        <mxCell id="WIyWlLk6GJQsqaUBKTNV-4" value="Yes" style="rounded=0;html=1;jettySize=auto;orthogonalLoop=1;fontSize=11;endArrow=block;endFill=0;endSize=8;strokeWidth=1;shadow=0;labelBackgroundColor=none;edgeStyle=orthogonalEdgeStyle;entryX=0.5;entryY=0;entryDx=0;entryDy=0;" parent="WIyWlLk6GJQsqaUBKTNV-1" source="WIyWlLk6GJQsqaUBKTNV-6" target="ZgOMgNbww_ace3PyBk6j-1" edge="1">
          <mxGeometry y="20" relative="1" as="geometry">
            <mxPoint as="offset" />
            <mxPoint x="260" y="410" as="targetPoint" />
          </mxGeometry>
        </mxCell>
        <mxCell id="WIyWlLk6GJQsqaUBKTNV-5" value="No" style="edgeStyle=orthogonalEdgeStyle;rounded=0;html=1;jettySize=auto;orthogonalLoop=1;fontSize=11;endArrow=block;endFill=0;endSize=8;strokeWidth=1;shadow=0;labelBackgroundColor=none;" parent="WIyWlLk6GJQsqaUBKTNV-1" source="WIyWlLk6GJQsqaUBKTNV-6" target="ZgOMgNbww_ace3PyBk6j-0" edge="1">
          <mxGeometry y="10" relative="1" as="geometry">
            <mxPoint as="offset" />
            <mxPoint x="420" y="160" as="targetPoint" />
          </mxGeometry>
        </mxCell>
        <mxCell id="WIyWlLk6GJQsqaUBKTNV-6" value="a % 2 &amp;gt; 0" style="rhombus;whiteSpace=wrap;html=1;shadow=0;fontFamily=Helvetica;fontSize=12;align=center;strokeWidth=1;spacing=6;spacingTop=-4;" parent="WIyWlLk6GJQsqaUBKTNV-1" vertex="1">
          <mxGeometry x="190" y="200" width="100" height="80" as="geometry" />
        </mxCell>
        <mxCell id="pOlQC6YbF8KCOI6iGANH-1" value="" style="edgeStyle=orthogonalEdgeStyle;rounded=0;orthogonalLoop=1;jettySize=auto;html=1;" edge="1" parent="WIyWlLk6GJQsqaUBKTNV-1" source="WIyWlLk6GJQsqaUBKTNV-7" target="pOlQC6YbF8KCOI6iGANH-0">
          <mxGeometry relative="1" as="geometry" />
        </mxCell>
        <mxCell id="WIyWlLk6GJQsqaUBKTNV-7" value="Початок" style="rounded=1;whiteSpace=wrap;html=1;fontSize=12;glass=0;strokeWidth=1;shadow=0;" parent="WIyWlLk6GJQsqaUBKTNV-1" vertex="1">
          <mxGeometry x="180" y="40" width="120" height="40" as="geometry" />
        </mxCell>
        <mxCell id="WIyWlLk6GJQsqaUBKTNV-11" value="Кінець" style="rounded=1;whiteSpace=wrap;html=1;fontSize=12;glass=0;strokeWidth=1;shadow=0;" parent="WIyWlLk6GJQsqaUBKTNV-1" vertex="1">
          <mxGeometry x="354" y="340" width="120" height="40" as="geometry" />
        </mxCell>
        <mxCell id="ZgOMgNbww_ace3PyBk6j-3" value="" style="edgeStyle=orthogonalEdgeStyle;rounded=0;orthogonalLoop=1;jettySize=auto;html=1;" edge="1" parent="WIyWlLk6GJQsqaUBKTNV-1" source="ZgOMgNbww_ace3PyBk6j-0" target="WIyWlLk6GJQsqaUBKTNV-11">
          <mxGeometry relative="1" as="geometry" />
        </mxCell>
        <mxCell id="ZgOMgNbww_ace3PyBk6j-0" value="False" style="shape=parallelogram;perimeter=parallelogramPerimeter;whiteSpace=wrap;html=1;fixedSize=1;spacing=12;" vertex="1" parent="WIyWlLk6GJQsqaUBKTNV-1">
          <mxGeometry x="354" y="210" width="120" height="60" as="geometry" />
        </mxCell>
        <mxCell id="ZgOMgNbww_ace3PyBk6j-4" value="" style="edgeStyle=orthogonalEdgeStyle;rounded=0;orthogonalLoop=1;jettySize=auto;html=1;" edge="1" parent="WIyWlLk6GJQsqaUBKTNV-1" source="ZgOMgNbww_ace3PyBk6j-1" target="WIyWlLk6GJQsqaUBKTNV-11">
          <mxGeometry relative="1" as="geometry" />
        </mxCell>
        <mxCell id="ZgOMgNbww_ace3PyBk6j-1" value="True" style="shape=parallelogram;perimeter=parallelogramPerimeter;whiteSpace=wrap;html=1;fixedSize=1;spacing=12;" vertex="1" parent="WIyWlLk6GJQsqaUBKTNV-1">
          <mxGeometry x="180" y="330" width="120" height="60" as="geometry" />
        </mxCell>
        <mxCell id="pOlQC6YbF8KCOI6iGANH-2" value="" style="edgeStyle=orthogonalEdgeStyle;rounded=0;orthogonalLoop=1;jettySize=auto;html=1;" edge="1" parent="WIyWlLk6GJQsqaUBKTNV-1" source="pOlQC6YbF8KCOI6iGANH-0" target="WIyWlLk6GJQsqaUBKTNV-6">
          <mxGeometry relative="1" as="geometry" />
        </mxCell>
        <mxCell id="pOlQC6YbF8KCOI6iGANH-0" value="Введіть число:" style="shape=parallelogram;perimeter=parallelogramPerimeter;whiteSpace=wrap;html=1;fixedSize=1;spacing=8;" vertex="1" parent="WIyWlLk6GJQsqaUBKTNV-1">
          <mxGeometry x="180" y="110" width="120" height="60" as="geometry" />
        </mxCell>
      </root>
    </mxGraphModel>
  </diagram>
  <diagram name="hw02-2" id="wd7kFH7rjJVV1dfc9ewf">
    <mxGraphModel dx="818" dy="1655" grid="1" gridSize="10" guides="1" tooltips="1" connect="1" arrows="1" fold="1" page="1" pageScale="1" pageWidth="827" pageHeight="1169" math="0" shadow="0">
      <root>
        <mxCell id="1-S_3sEg1VVymDBCTwdd-0" />
        <mxCell id="1-S_3sEg1VVymDBCTwdd-1" parent="1-S_3sEg1VVymDBCTwdd-0" />
        <mxCell id="1-S_3sEg1VVymDBCTwdd-2" value="Yes" style="rounded=0;html=1;jettySize=auto;orthogonalLoop=1;fontSize=11;endArrow=block;endFill=0;endSize=8;strokeWidth=1;shadow=0;labelBackgroundColor=none;edgeStyle=orthogonalEdgeStyle;entryX=0.5;entryY=0;entryDx=0;entryDy=0;" edge="1" parent="1-S_3sEg1VVymDBCTwdd-1" source="1-S_3sEg1VVymDBCTwdd-4" target="t4VtCCiSE0LwExffn2PP-8">
          <mxGeometry y="20" relative="1" as="geometry">
            <mxPoint as="offset" />
            <mxPoint x="160" y="550" as="targetPoint" />
            <Array as="points">
              <mxPoint x="240" y="580" />
              <mxPoint x="240" y="580" />
            </Array>
          </mxGeometry>
        </mxCell>
        <mxCell id="1-S_3sEg1VVymDBCTwdd-3" value="No" style="edgeStyle=orthogonalEdgeStyle;rounded=0;html=1;jettySize=auto;orthogonalLoop=1;fontSize=11;endArrow=block;endFill=0;endSize=8;strokeWidth=1;shadow=0;labelBackgroundColor=none;entryX=0;entryY=0.5;entryDx=0;entryDy=0;" edge="1" parent="1-S_3sEg1VVymDBCTwdd-1" source="1-S_3sEg1VVymDBCTwdd-4" target="t4VtCCiSE0LwExffn2PP-7">
          <mxGeometry y="10" relative="1" as="geometry">
            <mxPoint as="offset" />
            <mxPoint x="450" y="340" as="targetPoint" />
          </mxGeometry>
        </mxCell>
        <mxCell id="1-S_3sEg1VVymDBCTwdd-4" value="&lt;div&gt;(a &amp;gt; 0 and b &amp;lt; 0 and c &amp;lt; 0) or&lt;/div&gt;&lt;div&gt;&amp;nbsp; &amp;nbsp;(a &amp;lt; 0 and b &amp;gt; 0 and c &amp;lt; 0) or&lt;/div&gt;&lt;div&gt;&amp;nbsp; &amp;nbsp;(a &amp;lt; 0 and b &amp;lt; 0 and c &amp;gt; 0)&lt;/div&gt;" style="rhombus;whiteSpace=wrap;html=1;shadow=0;fontFamily=Helvetica;fontSize=12;align=center;strokeWidth=1;spacing=6;spacingTop=-4;" vertex="1" parent="1-S_3sEg1VVymDBCTwdd-1">
          <mxGeometry x="110" y="300" width="260" height="240" as="geometry" />
        </mxCell>
        <mxCell id="gM1gnjtaslr4O8hIrC5e-0" style="edgeStyle=orthogonalEdgeStyle;rounded=0;orthogonalLoop=1;jettySize=auto;html=1;exitX=0.5;exitY=1;exitDx=0;exitDy=0;entryX=0.5;entryY=0;entryDx=0;entryDy=0;" edge="1" parent="1-S_3sEg1VVymDBCTwdd-1" source="1-S_3sEg1VVymDBCTwdd-5" target="t4VtCCiSE0LwExffn2PP-0">
          <mxGeometry relative="1" as="geometry" />
        </mxCell>
        <mxCell id="1-S_3sEg1VVymDBCTwdd-5" value="Початок" style="rounded=1;whiteSpace=wrap;html=1;fontSize=12;glass=0;strokeWidth=1;shadow=0;" vertex="1" parent="1-S_3sEg1VVymDBCTwdd-1">
          <mxGeometry x="180" y="-10" width="120" height="40" as="geometry" />
        </mxCell>
        <mxCell id="t4VtCCiSE0LwExffn2PP-3" style="edgeStyle=orthogonalEdgeStyle;rounded=0;orthogonalLoop=1;jettySize=auto;html=1;exitX=0.5;exitY=1;exitDx=0;exitDy=0;entryX=0.5;entryY=0;entryDx=0;entryDy=0;" edge="1" parent="1-S_3sEg1VVymDBCTwdd-1" source="t4VtCCiSE0LwExffn2PP-0" target="t4VtCCiSE0LwExffn2PP-1">
          <mxGeometry relative="1" as="geometry" />
        </mxCell>
        <mxCell id="t4VtCCiSE0LwExffn2PP-0" value="Введіть перше число:" style="shape=parallelogram;perimeter=parallelogramPerimeter;whiteSpace=wrap;html=1;fixedSize=1;spacing=8;" vertex="1" parent="1-S_3sEg1VVymDBCTwdd-1">
          <mxGeometry x="180" y="50" width="120" height="60" as="geometry" />
        </mxCell>
        <mxCell id="t4VtCCiSE0LwExffn2PP-4" style="edgeStyle=orthogonalEdgeStyle;rounded=0;orthogonalLoop=1;jettySize=auto;html=1;exitX=0.5;exitY=1;exitDx=0;exitDy=0;entryX=0.5;entryY=0;entryDx=0;entryDy=0;" edge="1" parent="1-S_3sEg1VVymDBCTwdd-1" source="t4VtCCiSE0LwExffn2PP-1" target="t4VtCCiSE0LwExffn2PP-2">
          <mxGeometry relative="1" as="geometry" />
        </mxCell>
        <mxCell id="t4VtCCiSE0LwExffn2PP-1" value="Введіть друге число" style="shape=parallelogram;perimeter=parallelogramPerimeter;html=1;fixedSize=1;whiteSpace=wrap;spacing=8;" vertex="1" parent="1-S_3sEg1VVymDBCTwdd-1">
          <mxGeometry x="180" y="130" width="120" height="60" as="geometry" />
        </mxCell>
        <mxCell id="t4VtCCiSE0LwExffn2PP-5" style="edgeStyle=orthogonalEdgeStyle;rounded=0;orthogonalLoop=1;jettySize=auto;html=1;exitX=0.5;exitY=1;exitDx=0;exitDy=0;entryX=0.5;entryY=0;entryDx=0;entryDy=0;" edge="1" parent="1-S_3sEg1VVymDBCTwdd-1" source="t4VtCCiSE0LwExffn2PP-2" target="1-S_3sEg1VVymDBCTwdd-4">
          <mxGeometry relative="1" as="geometry" />
        </mxCell>
        <mxCell id="t4VtCCiSE0LwExffn2PP-2" value="Введіть третє число:" style="shape=parallelogram;perimeter=parallelogramPerimeter;whiteSpace=wrap;html=1;fixedSize=1;spacing=8;" vertex="1" parent="1-S_3sEg1VVymDBCTwdd-1">
          <mxGeometry x="180" y="210" width="120" height="60" as="geometry" />
        </mxCell>
        <mxCell id="gM1gnjtaslr4O8hIrC5e-3" style="edgeStyle=orthogonalEdgeStyle;rounded=0;orthogonalLoop=1;jettySize=auto;html=1;exitX=0.5;exitY=1;exitDx=0;exitDy=0;entryX=0.5;entryY=0;entryDx=0;entryDy=0;" edge="1" parent="1-S_3sEg1VVymDBCTwdd-1" source="t4VtCCiSE0LwExffn2PP-7" target="gM1gnjtaslr4O8hIrC5e-1">
          <mxGeometry relative="1" as="geometry" />
        </mxCell>
        <mxCell id="t4VtCCiSE0LwExffn2PP-7" value="Висловлювання невірне." style="shape=parallelogram;perimeter=parallelogramPerimeter;whiteSpace=wrap;html=1;fixedSize=1;spacing=12;" vertex="1" parent="1-S_3sEg1VVymDBCTwdd-1">
          <mxGeometry x="420" y="390" width="120" height="60" as="geometry" />
        </mxCell>
        <mxCell id="gM1gnjtaslr4O8hIrC5e-4" style="edgeStyle=orthogonalEdgeStyle;rounded=0;orthogonalLoop=1;jettySize=auto;html=1;exitX=1;exitY=0.5;exitDx=0;exitDy=0;entryX=0;entryY=0.5;entryDx=0;entryDy=0;" edge="1" parent="1-S_3sEg1VVymDBCTwdd-1" source="t4VtCCiSE0LwExffn2PP-8" target="gM1gnjtaslr4O8hIrC5e-1">
          <mxGeometry relative="1" as="geometry" />
        </mxCell>
        <mxCell id="t4VtCCiSE0LwExffn2PP-8" value="Висловлювання вірне." style="shape=parallelogram;perimeter=parallelogramPerimeter;whiteSpace=wrap;html=1;fixedSize=1;spacing=12;" vertex="1" parent="1-S_3sEg1VVymDBCTwdd-1">
          <mxGeometry x="180" y="590" width="120" height="60" as="geometry" />
        </mxCell>
        <mxCell id="gM1gnjtaslr4O8hIrC5e-1" value="Кінець" style="rounded=1;whiteSpace=wrap;html=1;fontSize=12;glass=0;strokeWidth=1;shadow=0;" vertex="1" parent="1-S_3sEg1VVymDBCTwdd-1">
          <mxGeometry x="420" y="600" width="120" height="40" as="geometry" />
        </mxCell>
      </root>
    </mxGraphModel>
  </diagram>
  <diagram name="hw02-3" id="AWZ-w95pJPtyT_Kao6Js">
    <mxGraphModel dx="1645" dy="486" grid="1" gridSize="10" guides="1" tooltips="1" connect="1" arrows="1" fold="1" page="1" pageScale="1" pageWidth="827" pageHeight="1169" math="0" shadow="0">
      <root>
        <mxCell id="zDbi-TEllXp-aRErSDY1-0" />
        <mxCell id="zDbi-TEllXp-aRErSDY1-1" parent="zDbi-TEllXp-aRErSDY1-0" />
        <mxCell id="zDbi-TEllXp-aRErSDY1-2" value="Yes" style="rounded=0;html=1;jettySize=auto;orthogonalLoop=1;fontSize=11;endArrow=block;endFill=0;endSize=8;strokeWidth=1;shadow=0;labelBackgroundColor=none;edgeStyle=orthogonalEdgeStyle;exitX=0;exitY=0.5;exitDx=0;exitDy=0;entryX=0.5;entryY=0;entryDx=0;entryDy=0;" edge="1" parent="zDbi-TEllXp-aRErSDY1-1" source="zDbi-TEllXp-aRErSDY1-4" target="zDbi-TEllXp-aRErSDY1-16">
          <mxGeometry y="20" relative="1" as="geometry">
            <mxPoint as="offset" />
            <mxPoint x="50" y="330" as="targetPoint" />
            <Array as="points">
              <mxPoint x="50" y="375" />
            </Array>
          </mxGeometry>
        </mxCell>
        <mxCell id="zDbi-TEllXp-aRErSDY1-3" value="No" style="edgeStyle=orthogonalEdgeStyle;rounded=0;html=1;jettySize=auto;orthogonalLoop=1;fontSize=11;endArrow=block;endFill=0;endSize=8;strokeWidth=1;shadow=0;labelBackgroundColor=none;entryX=0.5;entryY=0;entryDx=0;entryDy=0;" edge="1" parent="zDbi-TEllXp-aRErSDY1-1" source="zDbi-TEllXp-aRErSDY1-4" target="Lc_wlhWYKn_ECo7mehv2-1">
          <mxGeometry y="10" relative="1" as="geometry">
            <mxPoint as="offset" />
            <mxPoint x="370" y="300" as="targetPoint" />
          </mxGeometry>
        </mxCell>
        <mxCell id="zDbi-TEllXp-aRErSDY1-4" value="a &amp;gt; b" style="rhombus;whiteSpace=wrap;html=1;shadow=0;fontFamily=Helvetica;fontSize=12;align=center;strokeWidth=1;spacing=6;spacingTop=-4;" vertex="1" parent="zDbi-TEllXp-aRErSDY1-1">
          <mxGeometry x="175" y="310" width="130" height="130" as="geometry" />
        </mxCell>
        <mxCell id="zDbi-TEllXp-aRErSDY1-5" style="edgeStyle=orthogonalEdgeStyle;rounded=0;orthogonalLoop=1;jettySize=auto;html=1;exitX=0.5;exitY=1;exitDx=0;exitDy=0;entryX=0.5;entryY=0;entryDx=0;entryDy=0;" edge="1" parent="zDbi-TEllXp-aRErSDY1-1" source="zDbi-TEllXp-aRErSDY1-6" target="zDbi-TEllXp-aRErSDY1-8">
          <mxGeometry relative="1" as="geometry" />
        </mxCell>
        <mxCell id="zDbi-TEllXp-aRErSDY1-6" value="Початок" style="rounded=1;whiteSpace=wrap;html=1;fontSize=12;glass=0;strokeWidth=1;shadow=0;" vertex="1" parent="zDbi-TEllXp-aRErSDY1-1">
          <mxGeometry x="180" y="80" width="120" height="40" as="geometry" />
        </mxCell>
        <mxCell id="zDbi-TEllXp-aRErSDY1-7" style="edgeStyle=orthogonalEdgeStyle;rounded=0;orthogonalLoop=1;jettySize=auto;html=1;exitX=0.5;exitY=1;exitDx=0;exitDy=0;entryX=0.5;entryY=0;entryDx=0;entryDy=0;" edge="1" parent="zDbi-TEllXp-aRErSDY1-1" source="zDbi-TEllXp-aRErSDY1-8" target="zDbi-TEllXp-aRErSDY1-10">
          <mxGeometry relative="1" as="geometry" />
        </mxCell>
        <mxCell id="zDbi-TEllXp-aRErSDY1-8" value="Введіть перше число:" style="shape=parallelogram;perimeter=parallelogramPerimeter;whiteSpace=wrap;html=1;fixedSize=1;spacing=8;" vertex="1" parent="zDbi-TEllXp-aRErSDY1-1">
          <mxGeometry x="180" y="140" width="120" height="60" as="geometry" />
        </mxCell>
        <mxCell id="Lc_wlhWYKn_ECo7mehv2-0" value="" style="edgeStyle=orthogonalEdgeStyle;rounded=0;orthogonalLoop=1;jettySize=auto;html=1;" edge="1" parent="zDbi-TEllXp-aRErSDY1-1" source="zDbi-TEllXp-aRErSDY1-10" target="zDbi-TEllXp-aRErSDY1-4">
          <mxGeometry relative="1" as="geometry" />
        </mxCell>
        <mxCell id="zDbi-TEllXp-aRErSDY1-10" value="Введіть друге число" style="shape=parallelogram;perimeter=parallelogramPerimeter;html=1;fixedSize=1;whiteSpace=wrap;spacing=8;" vertex="1" parent="zDbi-TEllXp-aRErSDY1-1">
          <mxGeometry x="180" y="220" width="120" height="60" as="geometry" />
        </mxCell>
        <mxCell id="zDbi-TEllXp-aRErSDY1-14" value="Ви впевнені, що ввели не однакові числа?" style="shape=parallelogram;perimeter=parallelogramPerimeter;whiteSpace=wrap;html=1;fixedSize=1;spacing=12;" vertex="1" parent="zDbi-TEllXp-aRErSDY1-1">
          <mxGeometry x="500" y="600" width="240" height="60" as="geometry" />
        </mxCell>
        <mxCell id="zDbi-TEllXp-aRErSDY1-15" style="edgeStyle=orthogonalEdgeStyle;rounded=0;orthogonalLoop=1;jettySize=auto;html=1;exitX=1;exitY=0.5;exitDx=0;exitDy=0;entryX=0;entryY=0.5;entryDx=0;entryDy=0;" edge="1" parent="zDbi-TEllXp-aRErSDY1-1" source="zDbi-TEllXp-aRErSDY1-16" target="zDbi-TEllXp-aRErSDY1-17">
          <mxGeometry relative="1" as="geometry" />
        </mxCell>
        <mxCell id="zDbi-TEllXp-aRErSDY1-16" value="a, b" style="shape=parallelogram;perimeter=parallelogramPerimeter;whiteSpace=wrap;html=1;fixedSize=1;spacing=12;" vertex="1" parent="zDbi-TEllXp-aRErSDY1-1">
          <mxGeometry x="-10" y="600" width="120" height="60" as="geometry" />
        </mxCell>
        <mxCell id="zDbi-TEllXp-aRErSDY1-17" value="Кінець" style="rounded=1;whiteSpace=wrap;html=1;fontSize=12;glass=0;strokeWidth=1;shadow=0;" vertex="1" parent="zDbi-TEllXp-aRErSDY1-1">
          <mxGeometry x="190" y="610" width="120" height="40" as="geometry" />
        </mxCell>
        <mxCell id="Lc_wlhWYKn_ECo7mehv2-1" value="b &amp;gt; a" style="rhombus;whiteSpace=wrap;html=1;shadow=0;fontFamily=Helvetica;fontSize=12;align=center;strokeWidth=1;spacing=6;spacingTop=-4;" vertex="1" parent="zDbi-TEllXp-aRErSDY1-1">
          <mxGeometry x="390" y="415" width="130" height="130" as="geometry" />
        </mxCell>
        <mxCell id="Lc_wlhWYKn_ECo7mehv2-2" value="Yes" style="rounded=0;html=1;jettySize=auto;orthogonalLoop=1;fontSize=11;endArrow=block;endFill=0;endSize=8;strokeWidth=1;shadow=0;labelBackgroundColor=none;edgeStyle=orthogonalEdgeStyle;exitX=0;exitY=0.5;exitDx=0;exitDy=0;entryX=1;entryY=0.5;entryDx=0;entryDy=0;" edge="1" parent="zDbi-TEllXp-aRErSDY1-1" source="Lc_wlhWYKn_ECo7mehv2-1" target="Lc_wlhWYKn_ECo7mehv2-3">
          <mxGeometry y="20" relative="1" as="geometry">
            <mxPoint as="offset" />
            <mxPoint x="340" y="480" as="targetPoint" />
            <mxPoint x="250" y="440" as="sourcePoint" />
            <Array as="points" />
          </mxGeometry>
        </mxCell>
        <mxCell id="Lc_wlhWYKn_ECo7mehv2-4" value="" style="edgeStyle=orthogonalEdgeStyle;rounded=0;orthogonalLoop=1;jettySize=auto;html=1;" edge="1" parent="zDbi-TEllXp-aRErSDY1-1" source="Lc_wlhWYKn_ECo7mehv2-3" target="zDbi-TEllXp-aRErSDY1-17">
          <mxGeometry relative="1" as="geometry" />
        </mxCell>
        <mxCell id="Lc_wlhWYKn_ECo7mehv2-3" value="b,a" style="shape=parallelogram;perimeter=parallelogramPerimeter;whiteSpace=wrap;html=1;fixedSize=1;spacing=12;" vertex="1" parent="zDbi-TEllXp-aRErSDY1-1">
          <mxGeometry x="190" y="450" width="120" height="60" as="geometry" />
        </mxCell>
        <mxCell id="Lc_wlhWYKn_ECo7mehv2-5" value="No" style="edgeStyle=orthogonalEdgeStyle;rounded=0;html=1;jettySize=auto;orthogonalLoop=1;fontSize=11;endArrow=block;endFill=0;endSize=8;strokeWidth=1;shadow=0;labelBackgroundColor=none;entryX=0.5;entryY=0;entryDx=0;entryDy=0;exitX=1;exitY=0.5;exitDx=0;exitDy=0;" edge="1" parent="zDbi-TEllXp-aRErSDY1-1" source="Lc_wlhWYKn_ECo7mehv2-1" target="zDbi-TEllXp-aRErSDY1-14">
          <mxGeometry y="10" relative="1" as="geometry">
            <mxPoint as="offset" />
            <mxPoint x="530" y="450" as="sourcePoint" />
            <mxPoint x="650" y="500" as="targetPoint" />
          </mxGeometry>
        </mxCell>
        <mxCell id="Lc_wlhWYKn_ECo7mehv2-6" style="edgeStyle=orthogonalEdgeStyle;rounded=0;orthogonalLoop=1;jettySize=auto;html=1;exitX=0;exitY=0.5;exitDx=0;exitDy=0;entryX=1;entryY=0.5;entryDx=0;entryDy=0;" edge="1" parent="zDbi-TEllXp-aRErSDY1-1" source="zDbi-TEllXp-aRErSDY1-14" target="zDbi-TEllXp-aRErSDY1-17">
          <mxGeometry relative="1" as="geometry">
            <mxPoint x="150" y="640" as="sourcePoint" />
            <mxPoint x="200" y="640" as="targetPoint" />
          </mxGeometry>
        </mxCell>
      </root>
    </mxGraphModel>
  </diagram>
</mxfile>
